<svg width="899" height="242" viewBox="0 0 899 242" fill="none" xmlns="http://www.w3.org/2000/svg">
<path d="M861.211 35.6323C875.571 67.2881 884.288 102.657 878.389 136.919C872.486 171.176 849.806 203.817 816.83 214.828C802.991 219.447 788.094 220.156 773.56 218.912C753.599 217.2 733.135 211.418 718.518 197.718C705.665 185.66 698.482 168.388 696.341 150.891C694.194 133.399 696.751 115.625 701.073 98.5356C704.753 84.0097 709.675 69.9079 715.829 56.2445C721.984 42.5759 729.28 29.5499 737.718 17.1664C754.682 41.2455 773.611 68.3739 790.576 92.4529C813.781 73.742 838.011 54.3443 861.211 35.6323Z" fill="#F19A3E"/>
<path d="M108.355 193.383V14.1235H139.813V193.383H108.355ZM0 193.383V14.1235H31.4578V193.383H0ZM17.7262 116.519V88.2716H120.838V116.519H17.7262Z" fill="white"/>
<path d="M219.91 196.914C207.094 196.914 195.776 194.107 185.956 188.494C176.136 182.7 168.396 174.28 162.737 163.235C157.244 152.008 154.498 138.247 154.498 121.951C154.498 105.292 157.328 91.5309 162.987 80.6667C168.812 69.6214 176.635 61.3827 186.455 55.9506C196.275 50.5185 207.344 47.8025 219.661 47.8025C232.477 47.8025 243.795 50.6091 253.615 56.2222C263.435 61.8354 271.175 70.2551 276.834 81.4815C282.493 92.5267 285.323 106.288 285.323 122.765C285.323 139.424 282.493 153.276 276.834 164.321C271.175 175.366 263.352 183.605 253.365 189.037C243.545 194.288 232.394 196.914 219.91 196.914ZM221.159 170.839C228.149 170.839 234.058 169.119 238.885 165.679C243.712 162.058 247.374 156.716 249.87 149.654C252.533 142.593 253.865 134.173 253.865 124.395C253.865 114.074 252.45 105.292 249.621 98.0494C246.957 90.6255 243.046 84.9218 237.886 80.9383C232.893 76.9547 226.568 74.963 218.912 74.963C212.254 74.963 206.428 76.7737 201.435 80.3951C196.442 83.8354 192.614 88.9959 189.95 95.8765C187.454 102.757 186.206 111.267 186.206 121.407C186.206 137.342 189.285 149.564 195.443 158.074C201.768 166.584 210.34 170.839 221.159 170.839Z" fill="white"/>
<path d="M356.583 196.914C343.766 196.914 332.448 194.107 322.628 188.494C312.808 182.7 305.068 174.28 299.409 163.235C293.917 152.008 291.17 138.247 291.17 121.951C291.17 105.292 294 91.5309 299.659 80.6667C305.484 69.6214 313.307 61.3827 323.127 55.9506C332.948 50.5185 344.016 47.8025 356.333 47.8025C369.149 47.8025 380.467 50.6091 390.287 56.2222C400.108 61.8354 407.847 70.2551 413.506 81.4815C419.165 92.5267 421.995 106.288 421.995 122.765C421.995 139.424 419.165 153.276 413.506 164.321C407.847 175.366 400.024 183.605 390.038 189.037C380.218 194.288 369.066 196.914 356.583 196.914ZM357.831 170.839C364.822 170.839 370.73 169.119 375.557 165.679C380.384 162.058 384.046 156.716 386.542 149.654C389.206 142.593 390.537 134.173 390.537 124.395C390.537 114.074 389.122 105.292 386.293 98.0494C383.63 90.6255 379.718 84.9218 374.559 80.9383C369.565 76.9547 363.24 74.963 355.584 74.963C348.926 74.963 343.101 76.7737 338.107 80.3951C333.114 83.8354 329.286 88.9959 326.623 95.8765C324.126 102.757 322.878 111.267 322.878 121.407C322.878 137.342 325.957 149.564 332.115 158.074C338.44 166.584 347.012 170.839 357.831 170.839Z" fill="white"/>
<path d="M445.075 193.383V99.4074H423.354V73.6049L457.559 75.5062V70.6173C452.399 68.9876 448.071 66.6337 444.576 63.5556C441.081 60.2963 438.501 56.4938 436.836 52.1481C435.338 47.8025 434.589 43.0946 434.589 38.0247C434.589 30.2387 436.337 23.5391 439.832 17.9259C443.328 12.3127 448.238 7.96707 454.563 4.88889C460.887 1.62963 468.377 0 477.033 0C484.19 0 490.681 0.995883 496.506 2.98765C502.498 4.97941 507.325 7.42386 510.987 10.321C510.987 10.321 505.5 13.9205 505.5 18C505.5 29 520.648 42 520.648 42C512 42 500.584 36.0329 495.757 34.2222C490.931 32.2305 486.27 31.2346 481.776 31.2346C476.616 31.2346 472.372 32.8642 469.043 36.1234C465.714 39.2016 464.05 44.2716 464.05 51.3333C464.05 55.8601 464.799 59.572 466.297 62.4691C467.795 65.1852 469.709 67.358 472.039 68.9876C474.536 70.4362 476.949 71.5226 479.28 72.2469H509.739V99.4074H475.784V193.383H445.075Z" fill="white"/>
<path d="M565.338 242C558.68 242 551.939 241.276 545.115 239.827C538.291 238.379 531.883 236.115 525.891 233.037C520.065 230.14 515.155 226.337 511.161 221.63L521.896 193.383C526.723 199.358 532.965 203.885 540.621 206.963C548.278 210.041 556.017 211.58 563.84 211.58C572.994 211.58 580.568 209.498 586.56 205.333C592.552 201.35 597.129 195.103 600.291 186.593C603.454 178.082 605.201 167.49 605.534 154.815L607.282 129.012H602.039C600.374 141.325 597.628 151.374 593.8 159.16C589.972 166.765 585.145 172.379 579.319 176C573.66 179.44 567.002 181.16 559.346 181.16C549.859 181.16 541.869 178.535 535.378 173.284C528.887 168.033 523.977 160.247 520.648 149.926C517.485 139.605 515.904 126.839 515.904 111.63V51.3333H547.612V103.753C547.612 120.774 549.526 133.177 553.354 140.963C557.182 148.568 563.008 152.37 570.831 152.37C574.992 152.37 578.82 151.193 582.315 148.839C585.811 146.305 588.723 142.774 591.054 138.247C593.55 133.539 595.464 127.745 596.796 120.864C598.294 113.984 599.126 106.107 599.292 97.2346V51.3333H631V156.173C631 167.58 630.085 177.901 628.254 187.136C626.589 196.189 624.009 204.066 620.514 210.765C617.019 217.646 612.608 223.44 607.282 228.148C602.122 232.856 596.047 236.296 589.056 238.469C582.066 240.823 574.16 242 565.338 242Z" fill="white"/>
</svg>
