<svg width="157" height="63" viewBox="0 0 157 63" fill="none" xmlns="http://www.w3.org/2000/svg">
<path d="M63.2036 32.4921H49.283V46.1946H42.8852V14.2943H49.283V27.0912H63.2036V14.2943H69.6275V46.1946H63.2036V32.4921Z" fill="black"/>
<path d="M83.5468 46.6343C81.3177 46.6343 79.3797 46.1585 77.7312 45.2037C76.0827 44.2456 74.8071 42.892 73.9044 41.1415C73.0016 39.3926 72.5502 37.3188 72.5502 34.9202C72.5502 32.5233 73.0016 30.4282 73.9044 28.6334C74.8071 26.8402 76.0827 25.4424 77.7312 24.4399C79.3797 23.4391 81.3243 22.9371 83.5664 22.9371C85.8118 22.9371 87.7547 23.4277 89.395 24.4071C91.0386 25.3882 92.3077 26.7745 93.2023 28.5677C94.0952 30.3626 94.5433 32.479 94.5433 34.9202C94.5433 37.2138 94.1067 39.2384 93.235 40.9971C92.3617 42.7559 91.1089 44.1373 89.4735 45.1381C87.8381 46.1356 85.8625 46.6343 83.5468 46.6343ZM83.5664 41.8502C84.6948 41.8502 85.6041 41.5205 86.2943 40.8593C86.9828 40.1949 87.4849 39.322 87.7989 38.2409C88.1161 37.1613 88.2764 35.9801 88.2764 34.6971C88.2764 33.4945 88.1325 32.3576 87.8447 31.2846C87.5601 30.2084 87.0744 29.3405 86.3859 28.6793C85.6957 28.0149 84.757 27.6818 83.5664 27.6818C82.4363 27.6818 81.5221 27.9952 80.8254 28.6202C80.132 29.247 79.6234 30.0935 79.3012 31.1599C78.9774 32.228 78.8172 33.4076 78.8172 34.6971C78.8172 35.8915 78.9627 37.0383 79.2554 38.1359C79.5515 39.2302 80.0437 40.1227 80.7339 40.8134C81.4224 41.5057 82.366 41.8502 83.5664 41.8502Z" fill="black"/>
<path d="M106.419 46.6343C104.189 46.6343 102.251 46.1585 100.603 45.2037C98.9545 44.2456 97.6789 42.892 96.7761 41.1415C95.8734 39.3926 95.422 37.3188 95.422 34.9202C95.422 32.5233 95.8734 30.4282 96.7761 28.6334C97.6789 26.8402 98.9545 25.4424 100.603 24.4399C102.251 23.4391 104.196 22.9371 106.438 22.9371C108.684 22.9371 110.626 23.4277 112.267 24.4071C113.91 25.3882 115.179 26.7745 116.074 28.5677C116.967 30.3626 117.415 32.479 117.415 34.9202C117.415 37.2138 116.978 39.2384 116.107 40.9971C115.233 42.7559 113.981 44.1373 112.345 45.1381C110.71 46.1356 108.734 46.6343 106.419 46.6343ZM106.438 41.8502C107.567 41.8502 108.476 41.5205 109.166 40.8593C109.855 40.1949 110.357 39.322 110.671 38.2409C110.988 37.1613 111.148 35.9801 111.148 34.6971C111.148 33.4945 111.004 32.3576 110.716 31.2846C110.432 30.2084 109.946 29.3405 109.258 28.6793C108.567 28.0149 107.629 27.6818 106.438 27.6818C105.308 27.6818 104.394 27.9952 103.697 28.6202C103.004 29.247 102.495 30.0935 102.173 31.1599C101.849 32.228 101.689 33.4076 101.689 34.6971C101.689 35.8915 101.834 37.0383 102.127 38.1359C102.423 39.2302 102.915 40.1227 103.606 40.8134C104.294 41.5057 105.238 41.8502 106.438 41.8502Z" fill="black"/>
<path d="M133.405 23.3834V27.859H128.61V46.1946H122.186V27.859H117.986V23.3834H122.186V20.0956C122.186 18.2581 122.724 16.8324 123.802 15.8168C124.878 14.8029 126.407 14.2943 128.388 14.2943H133.601L133.621 18.5731H130.631C129.81 18.5731 129.251 18.7765 128.95 19.1834C128.649 19.587 128.499 20.2498 128.499 21.1718V23.3834H133.405Z" fill="black"/>
<path d="M138.552 53.4724C136.995 53.4724 135.897 53.3428 135.261 53.0852C134.623 52.8309 134.306 52.7046 134.306 52.7046V48.5965L136.55 48.6884C137.531 48.7442 138.323 48.6966 138.924 48.544C139.526 48.3898 139.984 48.1863 140.298 47.9337C140.612 47.6843 140.835 47.4234 140.965 47.1527C141.099 46.8804 141.196 46.6638 141.253 46.5031L141.672 45.2431L132.828 23.3834H139.186L144.642 38.254L150.163 23.3834H156.43L147.213 46.3259C146.423 48.2684 145.587 49.7531 144.707 50.7818C143.826 51.8138 142.876 52.5209 141.855 52.9015C140.838 53.2821 139.737 53.4724 138.552 53.4724Z" fill="black"/>
<mask id="mask0_31_158" style="mask-type:luminance" maskUnits="userSpaceOnUse" x="2" y="13" width="31" height="35">
<path d="M2.09333 13.86H32.2373V47.88H2.09333V13.86Z" fill="white"/>
</mask>
<g mask="url(#mask0_31_158)">
<mask id="mask1_31_158" style="mask-type:luminance" maskUnits="userSpaceOnUse" x="0" y="13" width="35" height="37">
<path d="M-3.8147e-06 17.8598L29.4375 13.02L34.6692 45.0368L5.23169 49.8783L-3.8147e-06 17.8598Z" fill="white"/>
</mask>
<g mask="url(#mask1_31_158)">
<mask id="mask2_31_158" style="mask-type:luminance" maskUnits="userSpaceOnUse" x="0" y="13" width="35" height="37">
<path d="M-3.8147e-06 17.8598L29.4375 13.02L34.6692 45.0368L5.23169 49.8783L-3.8147e-06 17.8598Z" fill="white"/>
</mask>
<g mask="url(#mask2_31_158)">
<path d="M23.0152 14.0766C27.04 18.0124 30.4351 22.8424 31.5603 28.3664C32.6871 33.892 31.1923 40.1641 26.8732 43.7735C25.0595 45.2878 22.8582 46.2738 20.5948 46.9432C17.4875 47.8636 14.0646 48.1983 11.057 46.9891C8.41094 45.9277 6.31434 43.7407 4.96185 41.224C3.60936 38.7073 2.94865 35.869 2.59377 33.0323C1.98866 28.1695 2.23397 23.351 3.32643 18.5735C7.29886 21.2116 11.7456 24.1927 15.718 26.8308C18.1122 22.6341 20.621 18.2733 23.0152 14.0766Z" fill="#F19A3E"/>
</g>
</g>
</g>
</svg>
