<svg xmlns="http://www.w3.org/2000/svg" xmlns:xlink="http://www.w3.org/1999/xlink" width="500" zoomAndPan="magnify" viewBox="0 0 375 149.999998" height="200" preserveAspectRatio="xMidYMid meet" version="1.2"><defs><clipPath id="6630201228"><path d="M 5 33 L 77 33 L 77 114 L 5 114 Z M 5 33 "/></clipPath><clipPath id="4e4f06ed44"><path d="M 0 42.523438 L 70.3125 31 L 82.808594 107.230469 L 12.496094 118.757812 Z M 0 42.523438 "/></clipPath><clipPath id="b8e6b49b25"><path d="M 0 42.523438 L 70.3125 31 L 82.808594 107.230469 L 12.496094 118.757812 Z M 0 42.523438 "/></clipPath></defs><g id="63950838ba"><g style="fill:#ffffff;fill-opacity:1;"><g transform="translate(93.917175, 109.98719)"><path style="stroke:none" d="M 57.046875 -32.625 L 23.796875 -32.625 L 23.796875 0 L 8.515625 0 L 8.515625 -75.953125 L 23.796875 -75.953125 L 23.796875 -45.484375 L 57.046875 -45.484375 L 57.046875 -75.953125 L 72.390625 -75.953125 L 72.390625 0 L 57.046875 0 Z M 57.046875 -32.625 "/></g></g><g style="fill:#ffffff;fill-opacity:1;"><g transform="translate(169.663777, 109.98719)"><path style="stroke:none" d="M 29.890625 1.046875 C 24.566406 1.046875 19.9375 -0.0859375 16 -2.359375 C 12.0625 -4.640625 9.015625 -7.863281 6.859375 -12.03125 C 4.703125 -16.195312 3.625 -21.132812 3.625 -26.84375 C 3.625 -32.550781 4.703125 -37.539062 6.859375 -41.8125 C 9.015625 -46.082031 12.0625 -49.410156 16 -51.796875 C 19.9375 -54.179688 24.582031 -55.375 29.9375 -55.375 C 35.300781 -55.375 39.941406 -54.207031 43.859375 -51.875 C 47.785156 -49.539062 50.816406 -46.238281 52.953125 -41.96875 C 55.085938 -37.695312 56.15625 -32.65625 56.15625 -26.84375 C 56.15625 -21.382812 55.113281 -16.5625 53.03125 -12.375 C 50.945312 -8.1875 47.953125 -4.898438 44.046875 -2.515625 C 40.140625 -0.140625 35.421875 1.046875 29.890625 1.046875 Z M 29.9375 -10.34375 C 32.632812 -10.34375 34.804688 -11.128906 36.453125 -12.703125 C 38.097656 -14.285156 39.296875 -16.363281 40.046875 -18.9375 C 40.804688 -21.507812 41.1875 -24.320312 41.1875 -27.375 C 41.1875 -30.238281 40.84375 -32.945312 40.15625 -35.5 C 39.476562 -38.0625 38.316406 -40.128906 36.671875 -41.703125 C 35.023438 -43.285156 32.78125 -44.078125 29.9375 -44.078125 C 27.238281 -44.078125 25.054688 -43.332031 23.390625 -41.84375 C 21.734375 -40.351562 20.519531 -38.335938 19.75 -35.796875 C 18.976562 -33.253906 18.59375 -30.445312 18.59375 -27.375 C 18.59375 -24.53125 18.941406 -21.800781 19.640625 -19.1875 C 20.347656 -16.582031 21.523438 -14.457031 23.171875 -12.8125 C 24.816406 -11.164062 27.070312 -10.34375 29.9375 -10.34375 Z M 29.9375 -10.34375 "/></g></g><g style="fill:#ffffff;fill-opacity:1;"><g transform="translate(224.293732, 109.98719)"><path style="stroke:none" d="M 29.890625 1.046875 C 24.566406 1.046875 19.9375 -0.0859375 16 -2.359375 C 12.0625 -4.640625 9.015625 -7.863281 6.859375 -12.03125 C 4.703125 -16.195312 3.625 -21.132812 3.625 -26.84375 C 3.625 -32.550781 4.703125 -37.539062 6.859375 -41.8125 C 9.015625 -46.082031 12.0625 -49.410156 16 -51.796875 C 19.9375 -54.179688 24.582031 -55.375 29.9375 -55.375 C 35.300781 -55.375 39.941406 -54.207031 43.859375 -51.875 C 47.785156 -49.539062 50.816406 -46.238281 52.953125 -41.96875 C 55.085938 -37.695312 56.15625 -32.65625 56.15625 -26.84375 C 56.15625 -21.382812 55.113281 -16.5625 53.03125 -12.375 C 50.945312 -8.1875 47.953125 -4.898438 44.046875 -2.515625 C 40.140625 -0.140625 35.421875 1.046875 29.890625 1.046875 Z M 29.9375 -10.34375 C 32.632812 -10.34375 34.804688 -11.128906 36.453125 -12.703125 C 38.097656 -14.285156 39.296875 -16.363281 40.046875 -18.9375 C 40.804688 -21.507812 41.1875 -24.320312 41.1875 -27.375 C 41.1875 -30.238281 40.84375 -32.945312 40.15625 -35.5 C 39.476562 -38.0625 38.316406 -40.128906 36.671875 -41.703125 C 35.023438 -43.285156 32.78125 -44.078125 29.9375 -44.078125 C 27.238281 -44.078125 25.054688 -43.332031 23.390625 -41.84375 C 21.734375 -40.351562 20.519531 -38.335938 19.75 -35.796875 C 18.976562 -33.253906 18.59375 -30.445312 18.59375 -27.375 C 18.59375 -24.53125 18.941406 -21.800781 19.640625 -19.1875 C 20.347656 -16.582031 21.523438 -14.457031 23.171875 -12.8125 C 24.816406 -11.164062 27.070312 -10.34375 29.9375 -10.34375 Z M 29.9375 -10.34375 "/></g></g><g style="fill:#ffffff;fill-opacity:1;"><g transform="translate(278.923687, 109.98719)"><path style="stroke:none" d="M 39.71875 -54.3125 L 39.71875 -43.65625 L 28.265625 -43.65625 L 28.265625 0 L 12.921875 0 L 12.921875 -43.65625 L 2.890625 -43.65625 L 2.890625 -54.3125 L 12.921875 -54.3125 L 12.921875 -62.140625 C 12.921875 -66.515625 14.207031 -69.910156 16.78125 -72.328125 C 19.351562 -74.742188 23.003906 -75.953125 27.734375 -75.953125 L 40.1875 -75.953125 L 40.234375 -65.765625 L 33.09375 -65.765625 C 31.132812 -65.765625 29.796875 -65.28125 29.078125 -64.3125 C 28.359375 -63.351562 28 -61.773438 28 -59.578125 L 28 -54.3125 Z M 39.71875 -54.3125 "/></g></g><g style="fill:#ffffff;fill-opacity:1;"><g transform="translate(315.903911, 109.98719)"><path style="stroke:none" d="M 15.03125 17.328125 C 11.3125 17.328125 8.691406 17.019531 7.171875 16.40625 C 5.648438 15.800781 4.890625 15.5 4.890625 15.5 L 4.890625 5.71875 L 10.25 5.9375 C 12.59375 6.070312 14.484375 5.957031 15.921875 5.59375 C 17.359375 5.226562 18.453125 4.742188 19.203125 4.140625 C 19.953125 3.546875 20.484375 2.925781 20.796875 2.28125 C 21.117188 1.632812 21.347656 1.117188 21.484375 0.734375 L 22.484375 -2.265625 L 1.359375 -54.3125 L 16.546875 -54.3125 L 29.578125 -18.90625 L 42.765625 -54.3125 L 57.734375 -54.3125 L 35.71875 0.3125 C 33.832031 4.9375 31.835938 8.472656 29.734375 10.921875 C 27.628906 13.378906 25.359375 15.0625 22.921875 15.96875 C 20.492188 16.875 17.863281 17.328125 15.03125 17.328125 Z M 15.03125 17.328125 "/></g></g><g clip-rule="nonzero" clip-path="url(#6630201228)"><g clip-rule="nonzero" clip-path="url(#4e4f06ed44)"><g clip-rule="nonzero" clip-path="url(#b8e6b49b25)"><path style=" stroke:none;fill-rule:nonzero;fill:#ffffff;fill-opacity:1;" d="M 54.972656 33.515625 C 64.585938 42.886719 72.695312 54.386719 75.382812 67.539062 C 78.074219 80.695312 74.503906 95.628906 64.1875 104.222656 C 59.855469 107.828125 54.597656 110.175781 49.191406 111.769531 C 41.769531 113.960938 33.59375 114.757812 26.410156 111.878906 C 20.089844 109.351562 15.082031 104.144531 11.851562 98.152344 C 8.621094 92.160156 7.042969 85.402344 6.195312 78.648438 C 4.75 67.070312 5.335938 55.597656 7.945312 44.222656 C 17.433594 50.503906 28.054688 57.601562 37.542969 63.882812 C 43.261719 53.890625 49.253906 43.507812 54.972656 33.515625 Z M 54.972656 33.515625 "/></g></g></g></g></svg>